<svg width="32" height="33" viewBox="0 0 32 33" fill="none" xmlns="http://www.w3.org/2000/svg">
<path d="M20.9776 0.227348C20.743 0.352014 19.224 1.82015 17.6041 3.49068L14.6559 6.52668C11.7488 3.54641 11.7261 3.53028 11.0434 3.52441C10.439 3.52001 10.2939 3.58308 9.87007 4.03335C9.46616 4.46308 9.38652 4.65521 9.38652 5.20668C9.38652 5.69508 9.47896 5.98108 9.74207 6.30668L10.0976 6.74668C6.60749 10.4837 5.87932 11.3916 5.44981 12.1807C5.12269 12.782 4.68181 13.8673 4.46989 14.5933C4.14563 15.6992 4.08163 16.1993 4.07309 17.6733C4.06598 18.9596 4.13425 19.69 4.32483 20.3867C4.46847 20.9103 4.80127 21.802 5.06581 22.3667L5.54652 23.3933C0.649805 28.468 0.288561 28.9051 0.143494 29.48C0.0524722 29.8423 0.0154944 30.3703 0.0595833 30.6533C0.105094 30.9349 0.288561 31.3969 0.467761 31.68C0.648383 31.9616 1.01674 32.3415 1.28696 32.5233C1.55718 32.7052 2.00092 32.8915 2.27541 32.9384C2.54847 32.9839 3.06047 32.9457 3.41318 32.8519C3.97069 32.7023 4.39452 32.3297 6.68429 29.9801L9.31541 27.28C10.8585 28.0617 11.6905 28.3917 12.1599 28.5208C12.6292 28.6484 13.5252 28.7921 14.151 28.8405C14.7767 28.8904 15.7367 28.8581 16.2843 28.7701C16.8319 28.6836 17.7591 28.4431 18.3465 28.2377C18.9325 28.0324 19.8612 27.588 20.4087 27.2507C21.0317 26.8664 22.1623 25.8793 23.431 24.6121L25.4576 22.5867C26.2029 23.2276 26.4759 23.32 26.9652 23.32C27.5255 23.32 27.6891 23.2467 28.103 22.8067C28.5168 22.3667 28.5865 22.1936 28.5823 21.5967C28.578 20.9059 28.5638 20.8853 26.9495 19.2133L25.3211 17.5267C30.9133 11.7612 31.7666 10.7873 31.8975 10.3767C32.0454 9.90588 32.0354 9.75188 31.8221 9.31335C31.6855 9.03028 31.3655 8.66801 31.111 8.50668C30.8564 8.34681 30.5051 8.21481 30.3287 8.21335C30.1524 8.21335 29.8651 8.28668 29.6887 8.37615C29.5124 8.46415 27.928 10.0159 26.1687 11.8228L22.9687 15.1067L16.9954 8.94961C23.1479 2.59748 23.32 2.39068 23.3214 1.87001C23.3229 1.56788 23.2119 1.12055 23.0754 0.877081C22.9389 0.633614 22.6189 0.337348 22.3643 0.217081C22.1097 0.098281 21.7897 1.43854e-05 21.6532 0.00148105C21.5167 0.00148105 21.2123 0.104148 20.9776 0.227348Z" fill="black"/>
</svg>
