<svg xmlns="http://www.w3.org/2000/svg" viewBox="0 0 696 696" width="696" height="696">
	<style>
		tspan { white-space:pre }
		.shp0 { fill: #000000 } 
	</style>
	<path id="Path 0" fill-rule="evenodd" class="shp0" d="M106.75 0.02C156.01 0 157.02 0.04 158 2C158.65 3.29 159 38.67 159 102C159 166.67 159.34 200 160 200C160.55 200 161.01 200.79 161.02 201.75C161.03 202.71 161.92 204.62 163 206C164.08 207.37 164.97 208.84 164.98 209.25C164.99 209.66 165.56 210.56 166.25 211.25C166.94 211.94 169.07 213.63 171 215.02C172.92 216.41 175.62 218.03 177 218.63C178.37 219.23 181.07 220.23 183 220.85C185.53 221.66 227.2 221.98 333.25 221.99C430.1 222 480.17 221.66 480.5 221C480.77 220.45 482.35 220 484 220C485.65 220 487 219.55 487 219C487 218.45 488.01 217.8 489.25 217.55C490.49 217.3 493.07 215.59 495 213.75C496.92 211.92 499.17 209.53 500 208.44C500.82 207.36 502.4 204.68 503.5 202.49C505.45 198.6 505.51 195.95 506.03 99.5C506.32 45.05 506.66 0.39 506.78 0.25C506.9 0.11 520.95 0 569 0L696 127L695.69 383.75C695.47 564.25 695.06 641.84 694.29 645C693.69 647.47 692.77 650.85 692.23 652.5C691.7 654.15 690.21 657.75 688.93 660.5C687.65 663.25 686.24 665.61 685.8 665.75C685.36 665.89 685 666.67 685 667.5C685 668.32 684.55 669 684 669C683.45 669 683 669.45 683 670C683 670.55 680.34 673.7 677.08 677C673.82 680.3 670.67 683 670.08 683C669.49 683 669 683.45 669 684C669 684.55 668.32 685 667.5 685C666.67 685 665.89 685.36 665.75 685.8C665.61 686.24 663.25 687.65 660.5 688.93C657.75 690.21 654.15 691.7 652.5 692.23C650.85 692.77 647.47 693.69 645 694.29C641.81 695.07 555.61 695.38 348 695.38C140.39 695.38 54.19 695.07 51 694.29C48.52 693.69 45.15 692.77 43.5 692.23C41.85 691.7 38.25 690.21 35.5 688.93C32.75 687.65 30.39 686.24 30.25 685.8C30.11 685.36 29.32 685 28.5 685C27.67 685 27 684.55 27 684C27 683.45 26.55 683 26 683C25.45 683 22.3 680.3 19 677C15.7 673.7 13 670.55 13 670C13 669.45 12.55 669 12 669C11.45 669 11 668.32 11 667.5C11 666.67 10.55 666 10 666C9.45 666 9 665.32 9 664.5C9 663.67 8.55 663 8 663C7.45 663 6.81 661.99 6.58 660.75C6.35 659.51 5.39 656.47 4.44 654C3.49 651.52 2.24 647.47 1.67 645C0.95 641.91 0.62 548.78 0.62 348C0.62 147.22 0.95 54.09 1.67 51C2.24 48.52 3.49 44.47 4.44 42C5.39 39.52 6.35 36.49 6.58 35.25C6.81 34.01 7.45 33 8 33C8.55 33 9 32.32 9 31.5C9 30.67 9.45 30 10 30C10.55 30 11 29.32 11 28.5C11 27.67 11.45 27 12 27C12.55 27 13 26.55 13 26C13 25.45 15.66 22.3 18.92 19C22.18 15.7 25.33 13 25.92 13C26.51 13 27 12.55 27 12C27 11.45 27.67 11 28.5 11C29.32 11 30 10.55 30 10C30 9.45 30.67 9 31.5 9C32.32 9 33 8.55 33 8C33 7.45 34.01 6.82 35.25 6.6C36.49 6.38 39.97 5.25 43 4.1C46.02 2.94 49.62 1.99 51 1.98C52.37 1.98 54.17 1.53 55 1C55.92 0.41 76.03 0.02 106.75 0.02ZM172.5 382.14C170.3 382.74 166.47 384.19 164 385.37C161.52 386.54 159.39 387.84 159.25 388.25C159.11 388.66 158.55 389 158 389C157.45 389 155.09 390.24 152.75 391.75C150.41 393.26 147.59 395.4 146.48 396.5C145.36 397.6 143.11 400.3 141.48 402.5C139.85 404.7 138.25 406.72 137.92 407C137.6 407.27 136 409.97 134.37 413C132.74 416.02 130.53 420.97 129.46 424C127.57 429.3 127.49 433.18 127.26 530C127.07 608.81 127.29 630.78 128.26 631.79C129.27 632.85 170.5 633.09 348 633.09C525.5 633.09 566.73 632.85 567.74 631.79C568.71 630.78 568.93 608.81 568.74 530C568.51 433.18 568.43 429.3 566.54 424C565.47 420.97 563.26 416.02 561.63 413C560 409.97 558.4 407.27 558.08 407C557.75 406.72 556.15 404.7 554.52 402.5C552.89 400.3 550.64 397.6 549.52 396.5C548.41 395.4 545.59 393.26 543.25 391.75C540.91 390.24 538.55 389 538 389C537.45 389 536.89 388.66 536.75 388.25C536.61 387.84 534.47 386.56 532 385.4C529.52 384.25 525.92 382.67 524 381.9C521.05 380.72 493.71 380.48 350.5 380.36C257 380.28 179.6 380.4 178.5 380.63C177.4 380.86 174.7 381.54 172.5 382.14ZM442 0L441.5 158.5L380.5 158.5L380.24 80.5C380.1 37.6 380.2 1.94 380.47 1.25C380.84 0.29 387.98 0 442 0Z" />
</svg>